<svg width="107" height="107" viewBox="0 0 107 107" fill="none" xmlns="http://www.w3.org/2000/svg">
<path d="M84.3787 1.95679C71.6882 8.84727 63.6222 22.2617 58.6751 44.6924C57.9223 48.0644 56.3091 56.0544 55.1261 62.3585C50.6091 86.1819 46.8987 94.7584 38.8328 100.329C35.1762 102.748 35.8215 103.042 41.0912 101.356C46.7912 99.5231 52.76 95.1982 56.5779 90.067C62.3317 82.2236 65.343 73.5005 70.1288 50.63C73.8929 32.5241 75.4524 26.3667 78.2486 18.8898C80.3457 13.0988 85.7768 3.12963 87.9278 1.07715C89.7023 -0.608819 88.6806 -0.315607 84.3787 1.95679Z" fill="black"/>
<path d="M66.6335 4.7423C64.5902 5.32872 60.6647 7.3079 57.976 9.06717C54.0506 11.6328 52.4374 13.2454 49.6412 17.2771C43.995 25.487 41.3063 33.4771 36.5205 56.7141C30.9281 83.6896 27.7555 92.8525 20.1734 103.481L17.6999 107L20.0121 105.9C25.013 103.481 31.197 98.4235 34.746 93.8055C42.4893 83.8362 45.8233 74.3069 51.0931 46.8182C55.0185 26.5866 57.2232 19.3296 61.4713 12.8789C63.5685 9.7269 67.7628 5.76854 70.3977 4.44908C72.6561 3.34954 71.0429 3.49614 66.6335 4.7423Z" fill="black"/>
<path d="M19.0442 6.50161C9.90273 8.18758 4.79427 12.4392 1.72919 21.0156C0.115995 25.4138 -0.0453251 26.5133 0.00844818 32.1577C0.0622215 41.4671 2.58957 47.9178 8.12821 52.6825L10.3867 54.6617L8.23576 57.0807C5.00936 60.5992 3.44994 65.5838 3.44994 72.5476C3.44994 75.773 3.82635 79.5114 4.36408 81.6372C5.92351 87.868 11.3546 94.0254 16.6244 95.4915C18.13 95.858 18.3989 95.6381 20.0121 92.1928C21.464 89.1874 21.6791 88.3078 21.0876 87.7947C20.7112 87.4281 20.1197 87.1349 19.797 87.1349C18.3989 87.1349 14.581 82.4435 13.6131 79.5847C12.3763 75.8463 12.2688 68.1494 13.3442 65.2906C15.5489 59.573 19.3131 57.0807 25.7121 57.0807H30.229L31.0894 53.1956C32.3262 47.478 31.896 47.1115 23.83 47.4047C15.1725 47.6246 12.6989 46.2318 10.2791 39.8545C8.5584 35.2364 8.66594 28.3459 10.6018 23.8744C13.7744 16.5441 18.7753 14.1251 29.2073 14.7849C38.3488 15.3713 39.1554 15.7378 39.3705 19.2563L39.5318 21.9685L42.1667 17.2772C43.5648 14.7116 46.2535 11.0464 48.1355 9.21383L51.5232 5.76858L36.7356 5.84189C28.6158 5.91519 20.6574 6.2084 19.0442 6.50161Z" fill="black"/>
<path d="M86.8523 14.4183C85.9381 16.3974 85.1853 18.1567 85.1853 18.4499C85.1853 18.6698 85.8844 19.0364 86.7447 19.3296C88.9494 19.9893 93.0362 25.1205 93.789 28.1259C94.1117 29.4454 94.4343 32.1576 94.4343 34.1368C94.5956 44.5458 88.8957 50.7033 80.0769 49.4571L76.7429 49.0173L75.9363 52.8291C75.1297 56.4942 75.1835 56.7874 76.0976 58.1069C76.958 59.4263 77.8722 59.5729 84.3249 59.5729L91.5306 59.6462L93.6277 61.9186C96.4777 65.0707 97.7683 68.8824 97.7683 74.3068C97.7683 81.4905 95.0796 86.8417 89.756 90.2136C87.3362 91.6797 86.3146 91.8996 80.0231 91.8263C76.1514 91.753 71.742 91.3131 70.2363 90.8C67.4939 89.9204 67.4401 89.8471 67.4401 87.2815L67.3864 84.5693L66.2571 86.7683C64.7515 89.6272 58.9977 97.4706 57.0081 99.3765L55.3949 100.843L71.5269 100.549C93.0362 100.109 97.2843 98.79 102.662 90.6534C107.824 82.8833 108.469 69.1023 104.114 60.3793C102.715 57.667 99.005 53.1956 97.4456 52.5358C97.0154 52.3159 97.5532 51.0698 99.0588 49.0906C102.339 44.6924 103.468 41.0273 103.468 34.2834C103.468 27.3196 102.393 22.9214 99.5428 18.5232C97.2843 15.0047 91.9607 10.8997 89.7023 10.8997C88.8957 10.8997 87.9815 11.9993 86.8523 14.4183Z" fill="black"/>
</svg>
