<svg width="107" height="84" viewBox="0 0 107 84" fill="none" xmlns="http://www.w3.org/2000/svg">
    <path
        d="M84.3787 1.5362C71.6882 6.94555 63.6222 17.4765 58.6751 35.0857C57.9223 37.7328 56.3091 44.0054 55.1261 48.9543C50.6091 67.6569 46.8987 74.3898 38.8328 78.7633C35.1762 80.6623 35.8215 80.8925 41.0912 79.569C46.7912 78.1303 52.76 74.7351 56.5779 70.7068C62.3317 64.5494 65.343 57.7014 70.1288 39.7469C73.8929 25.533 75.4524 20.6991 78.2486 14.8294C80.3457 10.2832 85.7768 2.45694 87.9278 0.84564C89.7023 -0.477924 88.6806 -0.247739 84.3787 1.5362Z"
        fill="black" />
    <path
        d="M66.6335 3.72293C64.5902 4.1833 60.6647 5.73705 57.976 7.11816C54.0506 9.13228 52.4374 10.3983 49.6412 13.5633C43.995 20.0085 41.3063 26.2811 36.5205 44.5232C30.9281 65.7003 27.7555 72.8936 20.1734 81.2378L17.6999 84L20.0121 83.1368C25.013 81.2378 31.197 77.2671 34.746 73.6417C42.4893 65.8154 45.8233 58.3344 51.0931 36.7545C55.0185 20.8717 57.2232 15.1746 61.4713 10.1106C63.5685 7.63608 67.7628 4.52858 70.3977 3.49274C72.6561 2.62955 71.0429 2.74464 66.6335 3.72293Z"
        fill="black" />
    <path
        d="M19.0442 5.10403C9.90273 6.42759 4.79427 9.76528 1.72919 16.4982C0.115995 19.951 -0.0453251 20.8142 0.00844818 25.2452C0.0622215 32.5536 2.58957 37.6177 8.12821 41.3582L10.3867 42.9119L8.23576 44.811C5.00936 47.5732 3.44994 51.4863 3.44994 56.9532C3.44994 59.4853 3.82635 62.4201 4.36408 64.089C5.92351 68.9804 11.3546 73.8143 16.6244 74.9652C18.13 75.253 18.3989 75.0803 20.0121 72.3756C21.464 70.0162 21.6791 69.3257 21.0876 68.9229C20.7112 68.6351 20.1197 68.4049 19.797 68.4049C18.3989 68.4049 14.581 64.722 13.6131 62.4777C12.3763 59.5428 12.2688 53.5005 13.3442 51.2562C15.5489 46.7675 19.3131 44.811 25.7121 44.811H30.229L31.0894 41.761C32.3262 37.2724 31.896 36.9847 23.83 37.2149C15.1725 37.3875 12.6989 36.2941 10.2791 31.2876C8.5584 27.6622 8.66594 22.2528 10.6018 18.7425C13.7744 12.9879 18.7753 11.0888 29.2073 11.6068C38.3488 12.0671 39.1554 12.3549 39.3705 15.1171L39.5318 17.2463L42.1667 13.5633C43.5648 11.5492 46.2535 8.6719 48.1355 7.23324L51.5232 4.52857L36.7356 4.58611C28.6158 4.64366 20.6574 4.87384 19.0442 5.10403Z"
        fill="black" />
    <path
        d="M86.8523 11.319C85.9381 12.8727 85.1853 14.2539 85.1853 14.484C85.1853 14.6567 85.8844 14.9444 86.7447 15.1746C88.9494 15.6925 93.0362 19.7208 93.789 22.0802C94.1117 23.116 94.4343 25.2452 94.4343 26.7989C94.5956 34.9705 88.8957 39.8044 80.0769 38.8261L76.7429 38.4808L75.9363 41.4733C75.1297 44.3506 75.1835 44.5808 76.0976 45.6166C76.958 46.6524 77.8722 46.7675 84.3249 46.7675L91.5306 46.8251L93.6277 48.609C96.4777 51.0835 97.7683 54.0759 97.7683 58.3343C97.7683 63.9739 95.0796 68.1747 89.756 70.8219C87.3362 71.9728 86.3146 72.1454 80.0231 72.0879C76.1514 72.0303 71.742 71.6851 70.2363 71.2822C67.4939 70.5917 67.4401 70.5341 67.4401 68.52L67.3864 66.3908L66.2571 68.1172C64.7515 70.3615 58.9977 76.5189 57.0081 78.0152L55.3949 79.1661L71.5269 78.9359C93.0362 78.5906 97.2843 77.5548 102.662 71.1671C107.824 65.0672 108.469 54.2485 104.114 47.4005C102.715 45.2713 99.005 41.761 97.4456 41.2431C97.0154 41.0704 97.5532 40.0921 99.0588 38.5384C102.339 35.0856 103.468 32.2083 103.468 26.914C103.468 21.4471 102.393 17.9944 99.5428 14.5416C97.2843 11.7794 91.9607 8.55677 89.7023 8.55677C88.8957 8.55677 87.9815 9.41997 86.8523 11.319Z"
        fill="black" />
</svg>
